<?xml version="1.0" standalone="no"?>
<!DOCTYPE svg PUBLIC "-//W3C//DTD SVG 20010904//EN"
 "http://www.w3.org/TR/2001/REC-SVG-20010904/DTD/svg10.dtd">
<svg version="1.0" xmlns="http://www.w3.org/2000/svg"
 width="1200.000000pt" height="1200.000000pt" viewBox="0 0 1200.000000 1200.000000"
 preserveAspectRatio="xMidYMid meet">
<metadata>
Created by potrace 1.14, written by Peter Selinger 2001-2017
</metadata>
<g transform="translate(0.000000,1200.000000) scale(0.100000,-0.100000)"
fill="#000000" stroke="none">
<path d="M3787 10395 c-4 -26 -7 -78 -7 -115 0 -169 -35 -388 -77 -483 -56
-124 -150 -153 -210 -65 -33 49 -56 58 -84 32 -36 -32 3 -103 76 -141 104 -55
265 27 310 156 9 25 25 120 36 211 10 91 29 223 40 294 13 82 17 132 11 138
-5 5 -27 12 -49 15 l-40 5 -6 -47z"/>
<path d="M4287 10433 c-12 -12 -7 -40 9 -54 10 -8 51 -16 98 -19 l81 -5 -3
-75 c-3 -100 -28 -297 -58 -450 -27 -140 -30 -190 -12 -208 16 -16 53 -15 66
1 6 6 29 167 52 357 22 190 45 352 49 360 6 11 35 16 122 20 l114 5 0 35 0 35
-256 3 c-140 1 -258 -1 -262 -5z"/>
<path d="M5327 10429 c-179 -42 -307 -250 -307 -500 0 -138 14 -186 70 -240
56 -55 119 -79 204 -79 171 0 291 154 231 297 -21 50 -20 51 26 55 53 4 71 28
44 58 -17 19 -28 20 -158 18 -120 -3 -141 -5 -151 -20 -17 -28 4 -53 50 -56
67 -4 82 -11 103 -46 63 -101 -25 -236 -153 -236 -188 1 -244 234 -119 488 44
90 110 165 164 186 39 16 43 16 77 -1 28 -14 44 -34 72 -88 31 -62 38 -70 67
-73 48 -5 60 25 32 80 -33 65 -66 104 -117 138 -47 31 -70 34 -135 19z"/>
<path d="M7760 10387 c0 -8 22 -32 49 -55 27 -23 83 -82 124 -131 184 -219
281 -456 352 -861 24 -141 39 -180 58 -161 6 6 0 49 -17 118 -14 59 -42 182
-62 273 -68 315 -184 537 -392 753 -70 72 -112 96 -112 64z"/>
<path d="M4024 9748 c-24 -11 -44 -48 -44 -79 0 -27 44 -69 73 -69 21 0 25 6
31 46 10 74 7 101 -10 108 -20 8 -24 7 -50 -6z"/>
<path d="M4763 9744 c-39 -20 -59 -63 -43 -93 16 -31 56 -54 79 -46 25 7 44
65 39 115 -4 41 -26 49 -75 24z"/>
<path d="M4485 9323 c-22 -2 -170 -15 -330 -28 -417 -36 -786 -74 -890 -91
-195 -33 -404 -101 -405 -131 0 -18 8 -17 175 22 211 49 749 117 1195 150 236
17 747 20 925 4 66 -5 399 -43 740 -84 534 -64 689 -87 1120 -164 275 -49 581
-101 680 -115 353 -52 665 -128 1080 -263 567 -185 890 -365 1209 -673 274
-263 443 -538 502 -815 8 -39 15 -120 15 -182 -1 -234 -59 -369 -242 -558
-103 -106 -193 -173 -328 -240 -87 -44 -107 -66 -67 -73 36 -7 288 142 401
238 143 121 258 303 291 460 24 113 14 307 -20 425 -80 267 -238 516 -491 771
-254 255 -523 437 -840 567 -60 25 -225 88 -365 140 -370 138 -509 170 -1470
333 -930 157 -1360 218 -1932 274 -373 36 -443 40 -665 38 -136 -1 -266 -3
-288 -5z"/>
<path d="M4796 9046 c-21 -14 -60 -46 -87 -72 l-49 -48 -207 -2 c-439 -4 -709
-70 -989 -242 -198 -121 -373 -192 -625 -251 -151 -36 -219 -61 -365 -134 -61
-31 -120 -56 -130 -56 -53 0 -111 -25 -224 -96 -223 -141 -370 -255 -450 -348
-25 -28 -31 -43 -26 -62 6 -24 8 -25 34 -12 29 15 52 12 52 -6 0 -7 -29 -32
-64 -56 -36 -24 -75 -54 -87 -67 -21 -22 -21 -23 -4 -76 29 -88 52 -98 79 -35
7 18 25 42 38 55 28 25 98 42 98 23 0 -6 11 -28 24 -49 24 -36 25 -39 16 -152
-12 -142 -23 -217 -56 -390 l-27 -135 75 -115 c127 -197 250 -427 363 -680 44
-100 47 -109 42 -177 -3 -63 4 -107 16 -93 12 15 58 147 76 220 29 121 45 220
85 534 34 260 40 293 116 572 85 313 118 406 207 574 110 209 231 370 410 547
106 104 146 134 160 119 4 -3 -52 -65 -123 -138 -239 -246 -400 -495 -519
-803 -104 -269 -156 -520 -230 -1115 -20 -156 -43 -313 -52 -348 -9 -35 -42
-116 -74 -180 -32 -65 -54 -121 -49 -126 16 -17 65 6 111 52 37 37 51 62 68
117 30 97 51 225 51 311 0 90 11 94 69 27 128 -145 66 -372 -139 -508 -46 -30
-68 -51 -62 -57 21 -21 165 85 239 175 100 121 115 179 133 517 17 301 44 454
117 650 113 302 303 577 546 789 56 49 117 108 135 130 18 22 63 65 100 95 37
29 155 147 262 262 260 279 317 334 347 334 15 0 37 14 57 35 30 32 76 48 76
26 0 -4 -33 -78 -74 -163 -90 -187 -160 -280 -406 -533 -203 -208 -325 -344
-317 -352 4 -3 30 20 59 52 29 32 114 117 188 189 278 270 436 442 607 662 57
74 119 142 139 155 43 26 125 36 167 20 23 -9 27 -16 27 -49 0 -46 -24 -140
-50 -200 -11 -24 -57 -109 -102 -189 -72 -126 -90 -151 -140 -190 -54 -41 -74
-73 -45 -73 6 0 59 13 117 29 100 27 105 29 105 54 -1 38 461 651 493 655 42
6 52 -14 52 -98 0 -144 -41 -305 -118 -455 -47 -92 -126 -205 -145 -205 -6 0
-23 9 -37 20 -26 21 -65 26 -74 11 -4 -5 78 -94 181 -198 140 -140 208 -217
266 -301 43 -62 77 -120 75 -128 -2 -9 -32 -34 -67 -55 -92 -56 -138 -52 -173
14 -6 12 -20 28 -30 35 -10 7 -52 57 -92 111 -89 118 -137 161 -233 208 -85
42 -187 56 -225 31 -13 -8 -40 -18 -60 -22 -25 -5 -44 -17 -59 -37 -12 -17
-35 -39 -50 -48 -16 -10 -42 -36 -59 -59 -16 -23 -49 -54 -72 -69 -37 -23 -54
-28 -123 -29 -44 -1 -134 -11 -201 -23 -67 -11 -124 -21 -128 -21 -3 0 -6 -9
-6 -20 0 -19 7 -20 140 -20 l140 0 32 -30 33 -29 -29 -24 c-23 -19 -27 -27
-20 -48 4 -13 8 -31 8 -39 1 -10 12 -15 34 -16 18 0 36 -4 40 -10 13 -13 72
-164 65 -164 -3 0 -27 20 -53 44 -83 78 -119 91 -245 91 -92 -1 -121 -5 -182
-27 -159 -57 -353 -261 -427 -449 -43 -109 -57 -179 -63 -315 -5 -109 -2 -153
17 -260 22 -130 39 -174 65 -174 8 0 42 -37 76 -82 92 -122 268 -296 307 -304
38 -8 39 -14 11 -40 -25 -22 -154 -281 -199 -397 -58 -152 -74 -231 -74 -372
-1 -112 2 -140 23 -200 46 -136 104 -272 217 -513 63 -134 114 -248 114 -253
0 -6 -4 -9 -9 -7 -14 4 -702 648 -789 736 -124 127 -258 350 -317 527 -37 110
-50 242 -36 374 6 58 14 117 18 131 4 17 2 22 -5 15 -27 -27 -57 -358 -42
-463 6 -45 25 -98 64 -176 149 -302 339 -524 804 -940 242 -216 283 -257 265
-263 -25 -9 -92 -63 -103 -83 -17 -32 -2 -24 65 35 35 30 66 55 69 55 12 0 46
-45 46 -62 0 -17 2 -17 28 -4 15 8 36 23 46 35 11 12 23 21 27 21 4 0 44 -55
88 -122 67 -103 88 -127 126 -147 l46 -24 33 32 32 31 75 -15 c41 -8 160 -44
264 -80 137 -46 198 -62 219 -58 33 7 33 7 -23 -71 -26 -37 -36 -60 -37 -95
-1 -25 -5 -72 -9 -104 -6 -44 -3 -68 9 -102 30 -78 151 -164 203 -144 17 6 40
3 81 -10 125 -43 235 -50 248 -17 3 7 0 25 -5 39 -14 35 7 49 114 73 56 13 72
19 53 22 -39 5 -35 20 8 28 63 12 160 -2 219 -31 55 -26 105 -82 105 -115 0
-10 17 -21 48 -29 26 -8 49 -14 52 -13 3 1 19 7 37 13 25 10 39 10 71 0 32
-11 76 -11 223 -3 167 10 200 15 359 56 164 43 177 48 211 84 19 20 40 46 46
56 8 15 14 16 30 7 52 -27 25 -71 -111 -173 -100 -75 -250 -149 -376 -184 -52
-15 -98 -31 -101 -36 -3 -5 -9 -56 -12 -112 -4 -57 -9 -110 -12 -118 -6 -16
19 -48 36 -48 12 0 16 13 24 83 4 40 11 57 21 57 11 0 14 -15 14 -65 0 -56 3
-65 18 -65 14 0 20 14 29 67 6 38 21 95 34 128 l24 60 6 -145 c3 -80 11 -158
18 -174 6 -16 43 -62 81 -103 80 -86 149 -186 186 -270 14 -32 33 -66 41 -75
19 -21 77 -24 133 -7 61 18 85 6 141 -71 48 -67 79 -88 79 -54 0 8 -25 49 -56
90 -76 104 -81 119 -26 90 41 -22 67 -52 261 -296 104 -131 183 -240 189 -260
l10 -35 1 38 c1 33 -7 48 -56 105 -92 109 -193 278 -193 324 0 15 3 16 25 6
45 -20 48 3 8 62 -20 30 -49 70 -65 88 -15 18 -28 37 -28 42 0 4 20 16 45 26
55 20 86 11 110 -35 25 -50 49 -56 103 -29 39 19 48 28 50 54 2 20 -4 36 -18
49 -22 20 -26 50 -9 61 6 3 31 -13 56 -37 l46 -44 -7 33 c-3 19 -15 45 -26 60
-19 23 -19 27 -5 41 15 15 18 14 39 -12 27 -34 46 -35 46 -2 0 15 -31 69 -80
137 -102 142 -130 200 -137 279 l-6 62 32 -6 c28 -6 33 -3 41 19 6 14 10 37
10 52 0 15 12 45 25 67 18 29 25 54 25 93 0 38 4 52 14 52 15 0 26 -21 26 -51
0 -10 6 -19 13 -19 23 0 47 35 47 68 0 37 20 54 159 132 53 30 124 81 161 117
37 34 74 63 83 63 8 0 17 9 20 20 3 12 14 20 25 20 16 0 37 -31 97 -142 54
-102 75 -133 71 -108 -3 19 -8 73 -12 120 -6 80 -5 89 20 139 15 29 48 71 73
94 53 49 80 77 490 500 171 177 322 335 334 350 26 34 17 64 -25 87 -24 12
-28 12 -36 0 -6 -8 -10 -29 -10 -46 0 -27 -26 -57 -207 -235 -212 -208 -454
-411 -738 -619 -236 -172 -515 -355 -635 -415 -63 -32 -134 -71 -158 -87 -61
-42 -73 -34 -65 42 4 40 2 60 -5 60 -15 0 -18 -6 -56 -112 -33 -92 -33 -94
-20 -158 31 -152 79 -268 101 -247 3 4 -2 47 -12 97 -12 60 -14 95 -8 101 14
14 24 -2 73 -116 24 -55 66 -136 94 -179 41 -65 50 -88 50 -125 1 -74 -24 -68
-140 29 -104 87 -136 99 -62 22 54 -56 68 -80 68 -121 0 -44 -29 -65 -93 -68
-41 -1 -58 3 -84 23 -17 13 -38 21 -46 18 -12 -4 -11 -11 4 -42 20 -38 25 -87
10 -96 -13 -8 -59 31 -76 65 -20 38 -49 29 -40 -12 8 -38 -2 -69 -23 -69 -10
0 -41 16 -69 35 -77 52 -89 46 -53 -25 26 -52 25 -76 -4 -95 -22 -15 -28 -15
-53 -2 -51 27 -124 110 -213 245 l-88 133 25 56 c23 50 25 64 20 139 l-5 84
39 60 c21 33 87 108 147 168 61 61 135 148 172 202 76 111 167 206 236 246 27
15 96 58 154 94 58 37 132 81 165 99 95 51 194 128 212 166 23 48 7 57 -29 17
-16 -19 -32 -32 -35 -29 -11 12 11 49 48 79 35 28 38 34 33 68 l-6 36 189 170
c103 94 204 185 224 203 41 35 69 86 69 124 0 17 12 35 39 56 50 40 165 176
228 271 90 135 162 299 202 460 61 249 95 625 71 786 -12 84 -13 85 -34 71
-38 -25 -47 -55 -29 -100 13 -32 15 -64 9 -180 -22 -467 -100 -748 -278 -1009
-97 -142 -174 -217 -356 -346 -196 -138 -207 -145 -166 -101 74 79 174 282
174 352 0 20 5 56 12 80 13 51 6 85 -25 124 -14 16 -27 48 -30 76 -4 26 -51
163 -106 305 -148 386 -145 375 -138 435 3 28 18 81 32 117 54 138 88 194 167
273 l78 79 -20 28 c-25 35 -25 58 -2 83 15 17 17 42 17 211 -1 162 -4 204 -23
278 -76 303 -228 506 -525 701 -203 134 -272 172 -357 197 -41 12 -81 26 -87
32 -19 16 1 44 37 51 30 6 40 29 19 43 -6 3 -31 7 -55 8 -32 1 -51 9 -72 29
-21 20 -38 27 -69 27 -30 0 -47 7 -66 25 -24 24 -27 25 -70 13 -40 -10 -49
-10 -64 5 -65 58 -233 98 -338 80 -107 -18 -141 -45 -286 -229 -72 -90 -136
-164 -144 -164 -10 0 -203 68 -213 76 -2 1 -12 34 -22 72 l-18 70 45 44 c75
73 123 178 105 229 -8 21 -12 18 -59 -49 -28 -39 -61 -97 -73 -127 -25 -60
-31 -61 -50 -2 -6 21 -77 126 -156 233 -79 107 -151 209 -160 227 -13 25 -16
50 -11 129 3 58 1 110 -5 126 -9 23 -5 47 18 127 19 65 34 100 43 100 16 0 87
-265 140 -519 17 -82 34 -153 39 -158 13 -13 38 0 49 25 8 17 -8 97 -68 352
-43 182 -78 341 -76 355 1 19 9 26 28 28 19 2 36 -8 70 -45 54 -58 191 -284
266 -439 51 -106 103 -274 103 -334 0 -14 3 -29 6 -33 9 -9 120 91 133 120 10
21 9 25 -8 30 -31 8 -161 226 -178 298 -8 33 -43 128 -78 211 -36 84 -65 158
-65 166 0 8 9 23 21 33 19 19 21 19 55 0 66 -36 123 -96 216 -228 98 -140 216
-292 306 -393 l53 -62 72 -7 c95 -9 233 -46 339 -90 82 -35 161 -83 353 -217
44 -30 157 -101 250 -158 94 -56 195 -120 225 -143 81 -60 194 -172 257 -255
52 -68 72 -81 80 -55 5 15 -229 289 -296 346 -76 66 -176 133 -301 201 -58 32
-152 92 -210 134 -274 199 -299 212 -524 289 -187 63 -242 91 -307 154 -78 76
-177 244 -156 266 8 8 186 -20 282 -44 124 -30 426 -189 664 -350 102 -68 131
-83 163 -83 21 0 38 2 38 4 0 6 -140 109 -270 198 -212 145 -464 296 -707 423
-88 46 -111 65 -79 65 56 0 580 -228 811 -353 206 -111 402 -241 589 -391 142
-113 372 -341 438 -433 113 -157 195 -360 242 -593 37 -186 49 -337 49 -615
-1 -210 2 -262 18 -322 31 -122 80 -193 133 -193 43 0 115 62 386 331 361 360
522 547 647 756 79 132 116 239 117 343 1 76 -2 90 -29 138 -32 59 -144 170
-310 308 -298 249 -649 459 -1014 609 -77 32 -138 62 -135 66 3 5 -23 23 -58
39 -50 24 -77 30 -129 30 -69 0 -309 57 -607 145 -351 103 -918 186 -1437 211
-143 7 -175 14 -175 39 0 54 406 20 1138 -96 393 -62 720 -124 897 -169 169
-43 594 -184 1035 -342 146 -53 280 -98 299 -102 29 -5 32 -4 21 10 -28 33
-107 67 -376 165 -733 266 -818 293 -1181 374 -394 89 -751 147 -1672 275
l-645 90 -282 0 c-171 0 -285 4 -289 10 -3 5 26 30 65 56 38 26 70 51 70 55 0
16 -35 9 -74 -15z m444 -950 c17 -51 49 -102 149 -234 129 -170 161 -230 161
-299 0 -44 -15 -48 -79 -23 -67 26 -71 26 -71 -10 0 -32 -9 -37 -28 -18 -6 6
-29 14 -51 17 -37 6 -50 18 -170 160 -85 101 -131 162 -131 177 0 29 168 294
186 294 7 0 22 -29 34 -64z m-3068 -613 c-3 -81 -2 -91 22 -126 36 -53 64
-229 46 -294 -8 -26 -10 -65 -6 -102 6 -55 -7 -449 -22 -686 -5 -76 -10 -100
-21 -100 -21 0 -78 109 -110 212 -16 51 -37 103 -45 115 -9 12 -16 37 -16 54
0 17 -11 57 -25 87 -47 102 -48 144 -14 432 25 213 36 276 62 350 33 96 70
145 109 145 23 0 23 -2 20 -87z m4350 62 c-2 -11 -12 -31 -23 -46 -34 -48 22
-56 64 -9 32 36 51 38 71 8 13 -20 13 -32 1 -88 -7 -36 -23 -121 -36 -190 -21
-115 -25 -127 -59 -165 -21 -22 -49 -59 -64 -82 -37 -60 -61 -58 -121 12 -41
49 -51 55 -85 55 -55 0 -68 7 -80 46 -12 36 -27 44 -36 19 -9 -22 -27 -18 -53
9 -24 25 -20 48 13 75 8 7 23 36 32 64 57 175 140 262 287 302 68 19 93 16 89
-10z m-1749 -55 c97 -37 172 -133 202 -262 23 -102 -2 -176 -89 -256 -71 -65
-79 -67 -139 -35 l-52 28 3 52 c3 45 -2 62 -34 122 l-39 70 21 23 c15 15 23
42 27 81 5 56 5 58 -21 68 -26 10 -87 7 -160 -7 -30 -6 -33 -4 -30 12 4 23 46
44 100 51 30 5 42 12 53 33 8 16 20 30 27 33 28 11 80 6 131 -13z m3646 -100
c122 -227 153 -615 80 -1010 -23 -124 -44 -180 -35 -95 16 147 28 467 23 585
-11 215 -49 403 -112 545 -14 32 -25 63 -25 69 1 16 35 -31 69 -94z m-3773
-41 c17 -18 17 -23 4 -46 -32 -56 -98 -44 -84 15 13 55 46 68 80 31z m1139
-77 c17 -8 44 -25 60 -37 17 -13 40 -26 53 -30 30 -9 44 -39 40 -86 -2 -21 2
-40 7 -41 13 -4 43 58 50 105 6 35 40 85 51 74 3 -3 0 -32 -7 -65 l-13 -60 82
-92 c44 -50 98 -104 119 -119 55 -40 67 -58 73 -109 5 -45 6 -47 44 -53 34 -6
55 -21 56 -42 0 -4 -20 -17 -45 -29 -25 -12 -45 -25 -45 -29 0 -4 36 -19 80
-34 81 -27 98 -45 61 -65 -28 -15 -107 -12 -140 4 -43 23 -54 43 -55 99 -2 73
-50 139 -86 117 -11 -7 -11 -16 0 -53 19 -70 -4 -87 -57 -43 -92 77 -279 182
-418 236 -33 13 -69 31 -81 42 -36 32 -69 19 -76 -32 -3 -23 -8 -25 -56 -28
-49 -3 -67 -12 -235 -124 -100 -66 -215 -147 -254 -179 -56 -45 -85 -62 -125
-70 -42 -9 -62 -21 -104 -64 -29 -28 -64 -75 -78 -103 -18 -36 -34 -54 -52
-58 -16 -4 -37 -26 -59 -59 -43 -68 -78 -100 -132 -120 -47 -18 -49 -22 -31
-60 16 -35 -1 -68 -52 -100 -23 -14 -44 -34 -48 -45 -4 -10 -26 -32 -48 -48
-23 -17 -46 -44 -52 -61 -6 -17 -9 -31 -6 -31 3 0 -10 -22 -30 -49 -48 -65
-55 -102 -26 -131 l22 -22 -40 -42 c-52 -53 -79 -106 -97 -191 -7 -37 -23 -77
-34 -89 -13 -14 -24 -47 -32 -96 -16 -110 -125 -437 -159 -480 -75 -96 -96
-184 -78 -330 6 -52 11 -105 11 -118 -2 -50 -56 -77 -103 -52 -26 14 -97 167
-121 259 -20 79 -19 97 12 249 11 51 17 103 13 116 -9 39 21 95 54 102 28 6
30 9 34 68 6 71 32 128 78 171 18 17 47 63 66 103 18 41 47 90 62 110 18 23
48 93 77 182 27 80 59 165 72 189 13 26 23 61 23 86 0 47 37 107 90 146 32 24
40 56 16 65 -8 3 -43 -15 -79 -39 -100 -68 -165 -90 -272 -91 -86 -1 -93 1
-142 32 -73 47 -170 154 -204 226 -22 45 -29 76 -29 119 0 68 14 99 80 178
l47 57 6 -92 c8 -125 31 -190 87 -247 93 -97 236 -88 354 21 85 78 119 199 93
325 l-9 40 22 -20 c67 -60 67 -200 0 -341 -38 -78 -97 -139 -167 -171 -73 -34
-156 -29 -232 13 -86 46 -134 111 -182 241 -12 32 -25 62 -30 68 -26 28 7
-149 40 -213 27 -53 93 -125 148 -161 35 -23 58 -31 93 -31 117 0 236 58 310
151 50 63 120 206 127 257 13 99 -54 260 -142 340 -72 66 -132 87 -233 79
-167 -13 -310 -128 -424 -343 -12 -24 -27 -44 -32 -44 -24 0 53 173 113 252
50 67 104 111 179 146 50 24 69 27 157 27 89 0 106 -3 157 -28 74 -36 161
-115 209 -191 36 -54 88 -176 103 -238 6 -25 4 -28 -19 -28 -23 0 -31 -12 -75
-106 -28 -58 -50 -110 -50 -115 0 -19 79 27 130 76 30 29 65 58 78 65 13 6
144 112 292 235 l269 224 140 183 c197 257 227 288 319 336 42 22 110 50 151
62 71 22 75 22 103 5 29 -17 31 -17 56 2 29 22 64 18 127 -15z m-1218 -59 c4
-10 -3 -24 -21 -40 -38 -32 -46 -29 -46 17 0 38 2 40 30 40 19 0 33 -6 37 -17z
m-317 -43 c0 -12 -40 -44 -47 -37 -12 13 16 57 32 51 8 -3 15 -9 15 -14z m382
-84 c5 -26 -7 -56 -23 -56 -5 0 -14 12 -20 27 -13 36 4 81 25 64 8 -7 16 -22
18 -35z m2768 -227 c28 -6 50 -15 48 -21 -2 -6 -45 -11 -98 -12 -111 -2 -153
-19 -214 -87 -63 -69 -118 -221 -118 -326 0 -45 -14 -65 -29 -42 -26 42 7 224
58 322 73 139 200 199 353 166z m-1626 -164 c38 -8 88 -24 112 -36 46 -22 143
-103 134 -112 -3 -3 -46 14 -95 39 -168 82 -260 91 -444 44 -111 -28 -131 -29
-131 -10 0 22 132 70 225 83 64 9 133 6 199 -8z m1436 -101 c0 -103 -9 -134
-41 -134 -44 0 -59 18 -59 70 0 60 13 96 48 133 45 47 52 38 52 -69z m-3463
-2 c47 -30 24 -114 -48 -175 -54 -47 -80 -46 -92 4 -23 100 71 215 140 171z
m2081 -67 c105 -51 118 -71 83 -128 -36 -59 -24 -106 59 -217 28 -37 50 -75
50 -84 0 -22 -36 -29 -124 -24 -109 5 -117 15 -113 139 3 83 7 105 31 150 26
50 26 54 10 66 -20 14 -43 10 -89 -16 -24 -13 -36 -33 -60 -101 -28 -82 -30
-92 -30 -262 0 -126 4 -181 12 -189 10 -10 14 -9 19 4 4 11 17 17 36 17 22 0
33 -7 46 -30 9 -16 31 -37 48 -46 30 -17 33 -16 67 5 33 20 81 70 119 123 12
17 19 20 28 12 18 -18 -8 -92 -46 -129 -19 -19 -50 -37 -78 -44 -41 -10 -55
-9 -123 14 -43 14 -79 25 -81 25 -2 0 0 -21 4 -47 8 -56 38 -93 101 -124 44
-21 44 -21 66 -2 26 23 71 43 95 43 9 0 28 -16 42 -35 14 -19 30 -36 37 -39 6
-3 30 8 52 24 l40 29 40 -32 c22 -18 40 -39 40 -48 1 -9 -16 -38 -36 -64 -23
-31 -39 -65 -43 -92 -7 -44 -7 -44 54 -97 110 -94 149 -126 158 -126 14 0 79
138 68 145 -6 4 -25 -3 -44 -14 -40 -25 -67 -26 -106 -6 -31 16 -52 67 -54
135 -1 32 2 35 30 38 24 2 36 -3 52 -23 17 -22 18 -30 9 -55 -10 -25 -8 -33 6
-47 16 -16 20 -16 45 -3 16 10 33 32 41 57 l15 41 -53 57 c-50 56 -52 59 -45
101 9 62 -1 89 -42 113 -29 18 -34 24 -24 36 6 8 31 17 55 20 35 6 42 10 38
26 -3 10 -11 24 -19 30 -25 21 -15 37 59 89 l72 51 3 -36 c3 -34 5 -36 29 -30
75 18 83 18 83 -3 0 -24 -17 -39 -50 -44 -43 -5 -38 -44 12 -95 50 -53 142
-123 159 -123 18 0 49 -31 49 -48 0 -12 -9 -13 -45 -9 -41 6 -45 5 -45 -14 0
-11 7 -27 15 -35 21 -22 19 -29 -19 -71 -45 -51 -51 -76 -30 -113 21 -35 17
-40 -51 -65 -61 -22 -85 -41 -85 -70 0 -30 19 -45 57 -45 41 0 42 -12 3 -27
-48 -18 -78 -106 -45 -133 22 -18 39 0 65 70 19 51 26 60 47 60 23 0 25 -3 19
-35 -6 -31 -93 -195 -116 -219 -5 -4 -25 15 -45 43 -41 56 -52 60 -86 31 l-24
-20 30 -22 c95 -70 212 -201 271 -303 15 -27 40 -59 54 -70 14 -11 65 -57 114
-103 62 -56 116 -95 173 -125 46 -23 83 -47 83 -54 0 -19 -103 -36 -146 -24
-48 13 -84 48 -84 81 0 25 -16 50 -32 50 -4 0 -8 -19 -8 -41 0 -41 0 -41 -22
-27 -32 21 -64 70 -88 136 -12 31 -38 74 -58 97 -21 22 -66 81 -101 132 -77
114 -275 308 -385 378 -42 28 -98 64 -124 80 -25 17 -53 43 -62 59 -35 65
-206 127 -294 106 -25 -5 -47 -5 -58 1 -29 16 -58 0 -75 -39 -36 -89 -90 -130
-228 -178 -64 -21 -89 -36 -127 -75 -26 -26 -61 -55 -77 -65 -16 -10 -33 -29
-36 -43 -8 -30 -43 -71 -61 -71 -7 0 -19 12 -26 27 -18 36 -44 51 -60 35 -9
-9 -7 -17 10 -35 30 -32 28 -59 -8 -80 -40 -24 -52 -14 -49 39 4 58 -13 76
-43 47 -28 -28 -28 -76 0 -106 42 -45 22 -94 -46 -118 -63 -22 -83 -119 -25
-119 29 0 63 25 63 47 0 32 41 91 74 107 70 33 74 14 11 -56 -77 -86 -118
-164 -123 -233 -3 -45 -10 -66 -27 -85 -16 -17 -30 -57 -45 -125 -13 -55 -27
-108 -32 -118 -5 -9 -39 -33 -76 -51 -51 -26 -72 -44 -89 -74 -35 -62 -116
-145 -175 -177 -48 -27 -61 -30 -148 -30 -93 0 -97 1 -190 47 -100 49 -170
100 -170 123 0 8 -9 19 -20 25 -25 13 -60 81 -60 116 0 19 13 38 45 67 43 38
45 44 45 93 0 85 8 82 93 -23 32 -40 85 -96 118 -123 64 -53 70 -55 132 -23
34 17 60 10 81 -22 21 -32 53 -32 100 0 31 21 36 22 36 7 -1 -34 -38 -99 -76
-130 -21 -17 -65 -42 -98 -56 l-61 -24 30 -12 c17 -7 47 -14 68 -17 33 -5 43
-2 73 28 49 47 118 153 143 219 12 30 38 87 58 126 l37 72 -23 96 c-14 61 -21
109 -17 129 20 96 21 92 -25 125 -53 39 -63 40 -55 5 18 -80 18 -89 -2 -113
-17 -21 -22 -22 -36 -11 -9 8 -16 29 -16 51 0 43 -23 60 -49 36 -9 -7 -42 -26
-73 -41 -32 -14 -58 -31 -58 -37 0 -6 18 -32 40 -58 22 -26 40 -53 40 -59 0
-6 -26 -28 -57 -48 -32 -20 -87 -65 -123 -99 -60 -57 -67 -61 -88 -50 -55 29
-144 175 -128 209 41 83 99 116 256 147 116 23 184 59 237 125 33 42 46 43 96
9 21 -14 45 -23 53 -20 24 9 16 46 -17 77 -18 16 -30 31 -28 33 2 1 22 13 44
26 22 13 59 45 83 71 23 26 52 51 63 54 14 5 19 14 17 28 -2 17 -10 22 -33 22
-25 0 -33 -7 -52 -43 -25 -50 -42 -72 -54 -72 -13 0 -11 38 3 63 15 27 11 76
-8 94 -18 19 -18 86 0 122 26 49 37 53 94 31 29 -11 64 -20 78 -20 32 0 80 25
88 45 20 52 -6 119 -56 146 -15 8 -24 7 -40 -8 -27 -24 -48 -67 -48 -98 0 -33
-29 -33 -67 -1 l-28 25 57 58 c31 32 62 70 67 86 6 15 22 32 36 37 22 8 25 15
25 59 0 48 0 49 47 72 53 27 85 71 66 90 -9 9 -19 6 -41 -10 -36 -25 -52 -27
-52 -5 0 17 180 212 263 284 l48 42 32 -26 c17 -15 56 -43 84 -63 l53 -36 35
27 c37 29 88 97 106 143 30 79 31 165 3 351 -7 49 -59 102 -98 102 -59 0 -72
-43 -36 -121 13 -30 20 -66 20 -112 l0 -68 -94 -43 c-129 -60 -131 -61 -155
-37 -56 56 6 278 104 376 55 55 97 75 230 109 125 31 138 33 256 35 94 1 97 0
187 -44z m507 -42 c12 -28 20 -28 70 -3 46 23 73 25 135 6 33 -10 46 -19 50
-36 4 -17 18 -28 48 -38 26 -8 53 -28 73 -53 22 -29 38 -39 58 -39 16 0 40
-10 55 -21 l27 -21 -65 -40 c-66 -39 -106 -44 -106 -12 0 10 -14 14 -52 14
-38 0 -65 7 -97 25 -31 18 -48 22 -55 15 -16 -16 -53 -12 -60 6 -3 9 -1 33 5
55 17 55 2 69 -70 69 -66 0 -113 22 -150 69 l-24 32 74 -3 c66 -3 75 -6 84
-25z m1295 -44 c23 -95 -13 -170 -105 -214 -57 -29 -175 -45 -212 -30 -15 5
-9 11 29 31 25 13 79 33 120 44 40 11 78 26 83 34 6 7 21 52 35 100 14 47 28
86 31 86 4 0 12 -23 19 -51z m148 39 c16 -16 15 -61 -3 -127 -22 -83 -62 -157
-120 -219 l-53 -57 -153 0 c-167 0 -226 11 -275 50 -48 39 -19 40 88 4 92 -30
114 -34 211 -34 l109 0 30 35 c56 67 86 139 97 241 8 68 15 97 28 106 21 16
26 16 41 1z m-753 -223 c25 -25 32 -45 16 -45 -13 0 -71 50 -71 61 0 17 31 9
55 -16z m-3686 -70 c30 -124 99 -257 178 -345 86 -96 178 -141 308 -152 27 -3
30 -6 30 -38 l0 -35 -65 0 c-156 1 -324 148 -430 379 -52 112 -76 227 -53 249
11 11 19 -4 32 -58z m3581 25 c6 -11 17 -20 24 -20 17 0 50 -38 65 -77 7 -17
18 -34 25 -36 7 -3 35 -43 61 -89 41 -69 49 -92 49 -134 2 -121 -114 -128
-159 -11 -15 39 -20 43 -68 55 -68 16 -103 42 -99 75 2 23 -1 25 -63 32 -36 3
-67 11 -70 16 -4 5 1 9 10 9 28 0 91 38 109 65 25 38 9 50 -27 19 -26 -22 -36
-25 -66 -19 -20 4 -73 7 -118 7 -46 -1 -83 2 -83 7 0 4 33 26 73 47 67 37 76
39 103 28 25 -11 34 -9 62 8 18 11 54 28 80 38 51 19 74 14 92 -20z m-1146
-253 c8 -12 7 -21 -6 -33 -20 -20 -38 -11 -38 20 0 39 23 46 44 13z m1155
-188 c42 -15 39 -36 -6 -48 -138 -36 -167 -40 -190 -25 -26 17 -31 54 -8 54 9
0 29 -7 44 -15 26 -13 30 -13 42 2 12 14 63 42 80 43 3 0 20 -5 38 -11z m18
-117 c14 -9 28 -62 17 -62 -5 0 -24 9 -42 20 -28 17 -32 23 -22 35 14 16 29
19 47 7z m-107 -42 c0 -20 -25 -38 -37 -26 -5 5 24 46 34 46 1 0 3 -9 3 -20z
m-142 -142 c29 -29 1 -98 -40 -98 -15 0 -18 8 -18 48 0 27 3 52 7 55 10 11 38
8 51 -5z m-2338 -81 c43 -21 32 -49 -27 -72 -29 -11 -53 -25 -53 -30 0 -13 43
-39 92 -54 43 -14 55 -36 28 -51 -26 -14 -44 -13 -84 7 -42 20 -86 6 -86 -26
0 -23 36 -51 65 -51 24 0 45 -18 45 -37 0 -7 -11 -13 -24 -13 -26 0 -79 -37
-71 -49 2 -5 32 -11 64 -15 33 -4 63 -11 66 -16 7 -12 -53 -57 -88 -65 -21 -6
-26 -12 -21 -24 4 -9 9 -31 12 -50 4 -33 4 -34 -24 -26 -16 4 -52 8 -80 9 -41
1 -58 -4 -87 -27 -69 -53 -37 -108 40 -67 35 18 123 28 123 14 0 -4 -7 -12
-16 -18 -15 -11 -15 -15 0 -50 9 -21 16 -42 16 -45 0 -28 -185 -86 -252 -79
l-33 3 3 125 c5 156 23 241 68 317 28 46 33 62 25 75 -19 31 -12 65 19 95 17
15 30 32 30 36 0 5 28 54 62 109 l61 100 51 -7 c28 -3 62 -12 76 -18z m2424
-26 c17 -11 51 -41 76 -68 52 -55 124 -93 236 -125 64 -18 103 -22 209 -21
136 0 227 15 365 59 41 13 76 21 78 19 21 -21 -48 -54 -204 -97 -66 -18 -106
-22 -244 -22 -153 0 -171 2 -245 27 -44 14 -111 45 -149 67 -37 22 -71 40 -75
40 -10 0 -111 117 -111 129 0 17 30 13 64 -8z m-95 -98 c39 -20 62 -41 82 -73
17 -27 53 -61 89 -85 65 -43 74 -61 36 -71 -30 -7 -90 20 -115 52 -11 14 -31
24 -52 26 -21 2 -37 10 -44 23 -29 56 -47 73 -84 79 -43 7 -64 26 -55 49 13
34 75 34 143 0z m-881 -82 c50 -30 92 -58 92 -63 0 -21 -21 -46 -50 -58 -16
-7 -30 -19 -30 -28 0 -21 -40 -62 -60 -62 -18 0 -51 32 -69 67 -6 12 -11 51
-11 86 0 45 -5 68 -15 77 -18 15 -20 47 -2 53 6 3 21 -1 32 -7 11 -7 62 -36
113 -65z m-1000 41 c4 -28 -19 -66 -54 -89 -22 -14 -27 -14 -35 -2 -16 25 -10
78 12 100 28 28 73 23 77 -9z m802 -103 c0 -35 -23 -164 -30 -172 -13 -14 -46
10 -60 42 -18 44 -5 95 31 125 37 31 59 33 59 5z m378 -47 c4 -25 60 -72 86
-72 15 0 89 -61 125 -104 9 -11 27 -29 40 -41 96 -90 133 -134 126 -154 -10
-33 32 -89 75 -101 44 -12 100 -55 100 -76 0 -11 -9 -13 -40 -8 -44 7 -90 -1
-90 -16 0 -6 7 -10 17 -10 26 0 98 -46 111 -72 6 -13 15 -41 20 -63 7 -38 10
-40 51 -45 l42 -5 -35 -34 c-19 -18 -40 -47 -47 -63 -11 -26 -9 -32 15 -57 14
-15 26 -35 26 -46 0 -10 11 -38 25 -62 21 -35 31 -43 56 -43 18 0 32 6 36 16
4 12 14 14 34 10 34 -6 37 6 15 68 -15 44 -11 76 11 76 24 0 83 -65 89 -99 6
-30 27 -41 39 -21 14 23 36 5 89 -72 31 -46 71 -102 88 -126 24 -32 29 -45 20
-54 -17 -17 -54 6 -72 45 -14 31 -62 58 -76 44 -4 -4 -9 -29 -12 -57 -2 -28
-10 -50 -16 -50 -6 0 -33 29 -59 65 -26 36 -54 68 -62 71 -24 9 -45 -15 -45
-52 0 -18 -4 -35 -8 -38 -15 -9 -75 39 -131 103 -48 56 -55 70 -71 144 -56
255 -182 430 -375 522 -49 23 -106 54 -125 69 -45 34 -229 216 -241 239 -17
30 43 21 86 -13 29 -23 41 -28 51 -19 26 21 16 58 -26 99 -22 22 -40 42 -40
46 0 3 10 24 22 46 18 31 27 38 48 36 17 -2 26 -10 28 -26z m772 -62 c15 -16
33 -30 38 -30 6 0 17 -12 24 -27 8 -18 41 -44 90 -72 80 -45 90 -61 36 -61
-23 0 -48 15 -105 65 -41 36 -79 65 -86 66 -75 6 -93 10 -106 23 -13 14 -12
18 9 41 31 33 66 32 100 -5z m-1330 -48 c0 -10 12 -22 30 -29 47 -18 41 -50
-12 -63 -24 -6 -46 -12 -50 -13 -4 -1 -68 -59 -142 -129 -74 -71 -138 -128
-143 -128 -5 0 -19 23 -31 52 -24 56 -19 71 23 82 16 4 31 21 44 50 21 48 37
61 92 71 25 5 57 26 100 65 67 62 89 72 89 42z m1298 -74 c31 -29 77 -70 102
-92 44 -37 44 -38 15 -32 -92 20 -259 135 -241 165 4 6 20 11 37 11 21 0 45
-14 87 -52z m-159 -22 c15 -8 33 -22 40 -30 7 -9 37 -26 66 -40 49 -22 151
-104 141 -113 -2 -2 -41 14 -87 35 -63 30 -99 55 -144 101 -61 63 -64 71 -16
47z m-645 -386 c99 -126 107 -140 78 -140 -57 0 -202 187 -185 238 3 6 8 12
12 12 4 0 47 -50 95 -110z m-300 68 c19 -27 12 -38 -24 -38 -22 0 -49 -21
-133 -104 -101 -99 -316 -270 -327 -260 -6 7 264 273 364 357 43 37 85 67 92
67 7 0 20 -10 28 -22z m527 -260 c35 -55 88 -127 118 -159 87 -95 32 -73 -71
29 -121 117 -147 153 -164 218 -31 115 6 88 117 -88z m599 -112 c0 -69 -61
-90 -86 -31 -13 33 -13 39 6 83 l21 47 30 -33 c20 -22 29 -43 29 -66z m-1065
-116 c14 -16 29 -20 58 -18 46 3 64 -15 53 -55 -4 -18 -15 -29 -33 -33 -24 -6
-33 0 -75 46 -26 30 -48 60 -48 67 0 20 25 16 45 -7z m1414 -480 c12 -18 13
-22 2 -19 -8 3 -21 16 -30 29 -12 18 -13 22 -2 19 8 -3 21 -16 30 -29z m-581
-1353 c3 -32 0 -37 -17 -37 -16 0 -21 6 -21 24 0 63 33 74 38 13z"/>
<path d="M5501 6451 c-9 -6 -12 -21 -8 -47 2 -22 10 -79 16 -128 14 -106 2
-238 -29 -337 -25 -82 -25 -124 0 -149 23 -23 29 -24 63 -11 l24 9 7 314 8
313 -27 22 c-29 25 -34 27 -54 14z"/>
<path d="M5325 5804 c-21 -8 -49 -23 -60 -34 -12 -11 -27 -20 -33 -20 -16 0
-33 -45 -26 -64 3 -8 18 -17 33 -21 48 -10 87 -42 109 -87 18 -39 31 -51 100
-86 l79 -41 34 17 c31 16 34 21 34 62 l0 45 -51 6 c-29 4 -74 19 -102 34 -84
46 -151 131 -77 97 14 -7 32 -12 40 -12 19 0 29 58 16 93 -12 31 -34 34 -96
11z"/>
<path d="M4818 5089 c-39 -23 -45 -79 -9 -79 24 0 64 44 59 66 -4 22 -26 28
-50 13z"/>
<path d="M4648 4476 c-57 -44 -85 -84 -64 -92 42 -16 105 35 120 99 8 35 -2
34 -56 -7z"/>
<path d="M5977 4843 c-15 -14 -6 -52 13 -58 11 -4 37 -25 58 -47 31 -35 85
-68 108 -68 3 0 -13 24 -38 53 -24 28 -56 69 -71 90 -26 34 -54 47 -70 30z"/>
<path d="M3798 9010 c-41 -22 -172 -40 -296 -40 -126 0 -781 -113 -1112 -191
-912 -216 -1400 -567 -1489 -1073 -18 -99 -13 -293 9 -409 52 -268 144 -442
334 -633 99 -99 199 -177 328 -254 89 -53 98 -57 98 -37 0 6 -58 49 -128 95
-233 151 -379 299 -476 482 -140 266 -166 610 -67 898 42 122 85 186 196 297
193 192 425 330 750 447 180 65 340 105 715 178 547 107 867 159 1143 186 70
7 78 14 57 55 -13 23 -16 23 -62 -1z"/>
<path d="M3315 8700 c-91 -44 -275 -112 -382 -140 -32 -8 -43 -16 -43 -30 0
-15 7 -20 29 -20 41 0 192 45 284 85 104 45 247 127 247 143 0 21 -31 12 -135
-38z"/>
<path d="M9496 7901 c-9 -14 33 -45 162 -120 70 -41 130 -70 138 -67 23 9 13
18 -100 100 -109 78 -185 111 -200 87z"/>
<path d="M1393 7787 c-66 -87 -87 -137 -58 -137 18 0 71 70 96 128 35 81 18
85 -38 9z"/>
<path d="M9923 6745 c-62 -46 -77 -70 -49 -81 24 -9 92 33 105 65 26 61 11 65
-56 16z"/>
<path d="M3030 6018 c2 -172 -1 -321 -5 -330 -4 -10 -4 -18 -1 -18 4 0 19 25
33 57 34 75 40 192 19 382 -9 79 -16 161 -16 182 0 29 -4 39 -16 39 -14 0 -15
-34 -14 -312z"/>
<path d="M9284 5222 c-27 -24 -83 -112 -70 -112 25 0 57 31 80 77 15 30 26 57
24 58 -2 2 -17 -9 -34 -23z"/>
<path d="M9301 5048 c-32 -34 -66 -96 -58 -104 8 -9 117 102 117 119 0 27 -26
20 -59 -15z"/>
<path d="M2324 4397 c-9 -25 86 -234 149 -327 74 -108 801 -807 1087 -1045 95
-79 314 -245 323 -245 3 0 44 -24 92 -52 48 -29 102 -61 121 -71 42 -21 43
-40 8 -109 -31 -62 -76 -179 -71 -184 2 -2 20 28 40 68 60 122 93 168 121 168
37 0 51 -24 36 -60 -18 -42 -5 -49 29 -16 29 28 51 28 51 1 0 -8 16 -16 40
-20 22 -4 40 -11 40 -16 0 -4 -10 -27 -21 -49 -30 -57 -18 -60 22 -6 33 47 58
57 78 33 7 -9 8 -24 1 -48 -12 -42 -13 -39 4 -39 8 0 16 7 20 15 7 18 93 62
103 52 4 -4 -3 -28 -16 -53 -12 -26 -20 -49 -17 -51 2 -3 25 9 50 26 24 17 47
27 50 22 3 -5 -3 -29 -14 -53 -11 -25 -22 -71 -25 -104 -4 -51 -3 -54 5 -22
12 46 48 103 89 142 17 17 31 35 31 42 0 18 20 28 32 16 8 -8 1 -26 -21 -61
-18 -27 -35 -67 -38 -88 -7 -47 -1 -41 60 55 50 78 55 80 132 61 29 -7 45 -17
48 -31 4 -15 11 -18 26 -13 12 3 31 -1 45 -11 14 -9 33 -14 41 -10 11 4 15 -2
15 -25 0 -27 3 -30 23 -24 12 4 41 18 65 32 38 22 43 22 49 7 4 -11 -1 -23
-15 -35 -21 -16 -62 -154 -62 -204 l1 -20 11 20 c6 11 19 29 28 40 10 11 27
52 39 91 23 76 40 98 85 110 26 6 28 5 21 -12 -4 -10 -10 -30 -13 -43 -4 -20
-2 -22 14 -13 11 6 28 20 38 31 11 12 29 21 41 21 36 0 135 83 135 113 0 2
-37 -5 -82 -15 -116 -28 -280 -21 -392 15 -43 14 -84 23 -92 20 -21 -8 -17 6
12 44 22 30 24 37 13 48 -12 12 -19 12 -46 -1 -18 -9 -39 -27 -48 -40 -23 -36
-77 -33 -116 5 -19 20 -29 25 -29 14 0 -19 -54 -73 -74 -73 -12 0 -16 11 -16
46 l0 46 -35 -22 c-19 -12 -39 -19 -45 -15 -15 9 -12 61 5 75 8 7 15 19 15 26
0 20 -40 17 -46 -3 -16 -53 -32 -61 -64 -35 -24 19 -24 20 -7 63 20 53 21 59
5 59 -7 0 -26 -18 -42 -40 -17 -22 -34 -40 -39 -40 -15 0 -343 167 -437 222
-346 204 -595 410 -1065 882 -372 373 -449 463 -535 627 -28 54 -53 99 -56 99
-3 0 -7 -6 -10 -13z"/>
<path d="M2280 3969 c0 -76 25 -231 51 -314 48 -156 144 -315 268 -443 28 -29
51 -57 51 -63 0 -6 41 -54 91 -107 75 -80 98 -114 138 -197 35 -73 59 -109 90
-135 23 -19 63 -55 89 -80 26 -25 72 -65 101 -89 49 -41 53 -47 48 -78 l-6
-34 37 22 c20 13 47 29 59 37 34 21 46 7 38 -46 -6 -43 -6 -45 17 -38 60 19
68 19 68 -1 0 -25 19 -43 46 -43 42 0 48 -24 19 -75 -15 -25 -26 -48 -24 -50
2 -2 31 16 64 41 32 24 64 43 69 41 6 -2 12 -18 14 -36 3 -26 10 -35 38 -47
19 -8 34 -18 34 -23 0 -5 -11 -34 -25 -66 l-26 -57 28 21 c16 11 44 34 63 50
l34 29 -26 33 c-42 56 -80 90 -148 135 -68 44 -119 93 -140 132 -8 16 -17 21
-28 17 -9 -4 -24 -9 -32 -12 -17 -5 -225 128 -343 220 -72 56 -81 67 -118 146
-22 47 -45 95 -50 107 -6 11 -49 63 -96 115 -247 274 -373 497 -449 798 -19
74 -37 137 -39 140 -3 2 -5 -20 -5 -50z"/>
<path d="M9026 3055 c-9 -14 -28 -30 -41 -35 -13 -5 -82 -56 -153 -114 -72
-58 -137 -106 -145 -106 -8 0 -29 15 -47 33 -33 32 -33 25 2 -25 10 -14 18
-31 18 -36 0 -10 -151 -122 -165 -122 -13 0 -171 -105 -215 -143 -25 -22 -67
-50 -95 -64 -27 -14 -71 -45 -97 -69 -26 -24 -54 -44 -63 -44 -8 0 -34 -12
-57 -26 -22 -14 -57 -32 -77 -39 -21 -7 -37 -20 -39 -31 -6 -32 -43 -64 -74
-64 -23 0 -28 -4 -28 -23 0 -13 -9 -32 -21 -43 -21 -19 -21 -18 -49 13 -16 17
-31 29 -34 26 -3 -4 -6 -32 -6 -63 0 -64 34 -143 65 -148 15 -4 17 1 11 40 -8
56 10 86 42 69 30 -16 31 -15 52 34 11 25 25 47 32 49 80 23 107 38 199 113
57 46 202 150 322 230 241 161 228 158 269 75 l23 -47 3 83 c2 45 7 82 11 82
5 0 23 -17 40 -37 26 -33 30 -35 31 -17 0 12 -7 41 -15 64 -14 39 -14 45 1 62
30 32 49 22 77 -39 l25 -58 1 46 c1 25 -4 61 -10 78 -8 24 -8 36 0 44 14 14
47 -15 72 -65 19 -37 39 -50 39 -25 0 6 -7 39 -15 72 -21 87 -21 86 25 79 38
-6 40 -5 40 21 0 19 6 28 20 32 12 3 30 23 40 44 11 21 30 44 43 50 22 12 37
28 37 41 0 6 -10 10 -61 24 -10 3 -23 -6 -33 -21z"/>
<path d="M6915 2753 c-15 -21 -78 -87 -141 -148 -157 -153 -191 -230 -144
-332 10 -24 24 -43 29 -43 21 0 24 54 7 103 -10 27 -15 52 -11 55 15 15 41
-20 70 -94 61 -155 110 -233 131 -211 3 3 -13 50 -36 103 -70 164 -101 320
-63 312 10 -2 26 -30 44 -78 20 -57 31 -75 45 -75 18 0 19 10 19 125 0 139 10
169 82 257 33 41 36 63 9 63 -8 0 -26 -17 -41 -37z"/>
<path d="M7064 2633 c-34 -74 -47 -94 -54 -83 -13 20 -12 97 0 121 23 41 -2
16 -50 -53 -41 -58 -50 -79 -48 -106 3 -29 8 -36 41 -47 53 -18 62 -28 103
-111 36 -73 72 -114 101 -114 12 0 10 7 -7 33 -31 47 -59 113 -66 158 -8 49 5
51 47 7 l30 -33 -5 35 c-3 19 -6 85 -7 145 0 61 -3 118 -6 128 -10 39 -35 14
-79 -80z"/>
<path d="M1630 2613 c-37 -99 -51 -164 -57 -264 -4 -70 -2 -98 6 -104 7 -4 15
-5 17 -2 10 10 103 332 104 358 0 14 -10 35 -24 48 l-24 23 -22 -59z"/>
<path d="M6079 2463 c-41 -4 -50 -9 -90 -58 -40 -50 -47 -54 -77 -48 -26 4
-44 -2 -98 -37 -101 -66 -251 -236 -229 -258 3 -3 46 34 95 83 68 68 93 86
101 78 9 -9 5 -20 -16 -45 -46 -54 -70 -128 -42 -128 6 0 27 28 44 63 32 61
134 199 142 191 2 -2 -15 -45 -39 -95 l-43 -90 -10 -185 c-9 -165 -7 -208 8
-193 9 10 35 211 35 275 0 66 1 68 42 107 57 54 98 116 98 150 0 16 5 27 14
27 8 0 26 19 40 43 29 49 80 109 73 87 -2 -8 -15 -48 -28 -88 -16 -51 -20 -75
-12 -83 23 -23 100 94 118 179 l7 32 -44 -2 c-24 -1 -64 -3 -89 -5z"/>
<path d="M5655 2349 c-83 -38 -155 -77 -162 -85 -18 -24 -25 -104 -21 -249 l3
-130 12 87 c13 90 29 133 68 180 30 36 169 152 222 186 29 18 43 34 43 49 0
12 -3 24 -8 27 -4 2 -75 -27 -157 -65z"/>
<path d="M3784 2175 c-22 -33 -12 -55 26 -55 35 0 35 -1 13 -62 -9 -26 -14
-51 -9 -55 10 -10 48 16 86 60 38 44 33 70 -14 75 -18 2 -34 14 -44 33 -21 35
-37 37 -58 4z"/>
<path d="M3952 2063 c3 -36 5 -38 38 -38 l35 0 0 -80 c0 -69 -4 -89 -33 -150
l-32 -70 75 80 75 80 -3 56 c-4 68 -33 114 -91 140 -60 27 -68 25 -64 -18z"/>
<path d="M4172 1938 c-64 -84 -53 -157 12 -82 19 23 37 35 44 30 15 -9 15 -39
0 -54 -18 -18 -3 -15 41 8 33 16 41 17 50 6 9 -11 2 -26 -34 -71 -26 -31 -45
-58 -43 -60 2 -3 37 18 78 45 41 28 78 50 83 50 15 0 6 -35 -19 -67 -14 -19
-24 -36 -22 -38 2 -2 34 14 72 36 37 23 70 38 73 35 13 -13 -11 -61 -54 -107
-25 -27 -43 -49 -39 -49 3 0 43 29 89 65 45 36 86 65 90 65 21 0 15 -33 -17
-86 -19 -33 -33 -60 -31 -62 2 -2 41 22 87 52 45 31 90 56 100 56 9 0 29 -14
45 -30 24 -27 33 -30 66 -24 45 7 47 -2 11 -63 -14 -25 -23 -47 -20 -50 3 -4
7 -4 9 -2 51 68 132 157 138 153 13 -8 11 -40 -5 -79 -18 -43 -9 -44 28 -6 26
27 56 32 56 9 0 -5 -19 -41 -41 -79 -23 -38 -39 -72 -36 -75 3 -4 47 30 98 75
50 45 95 81 100 81 4 0 9 -15 11 -32 3 -31 5 -33 38 -31 32 1 60 22 74 56 8
19 44 -29 58 -76 6 -23 14 -46 18 -50 4 -4 24 15 46 42 37 49 73 70 60 35 -14
-35 -28 -105 -23 -110 3 -3 20 10 39 29 29 29 44 35 96 41 34 4 62 5 62 3 0
-3 -9 -26 -21 -52 -11 -25 -18 -49 -15 -53 4 -3 28 15 54 40 52 50 104 81 130
76 12 -2 20 -20 27 -67 11 -72 26 -86 45 -42 8 20 21 32 41 36 17 4 42 23 60
45 27 34 34 37 56 29 13 -5 35 -9 48 -9 21 0 23 3 18 43 -6 45 -86 170 -113
174 -34 6 -45 -15 -51 -102 -3 -47 -11 -91 -17 -97 -10 -10 -32 7 -102 77
l-90 90 0 -58 c0 -70 -19 -77 -47 -17 -10 22 -21 40 -25 40 -3 0 -14 -20 -24
-45 -9 -25 -20 -45 -25 -45 -5 0 -16 14 -24 31 -15 29 -19 30 -57 24 l-41 -7
6 51 c8 66 -4 66 -68 1 -63 -64 -78 -65 -70 -6 10 65 -8 67 -69 7 -28 -28 -57
-51 -63 -51 -14 0 -23 24 -23 63 0 18 -5 39 -10 47 -9 12 -17 7 -49 -29 -21
-24 -42 -41 -48 -38 -5 3 -18 24 -28 47 -18 40 -18 40 -37 20 -30 -32 -48 -26
-48 19 0 41 -35 104 -61 109 -11 2 -14 -7 -14 -37 0 -48 -24 -77 -76 -92 -55
-17 -71 -7 -63 36 3 19 3 35 -2 35 -4 0 -25 -16 -46 -37 -43 -42 -61 -36 -72
22 -7 34 -28 46 -41 25 -9 -14 -58 -13 -73 2 -7 7 -12 22 -12 35 0 30 -15 29
-52 -2 -16 -14 -34 -25 -39 -25 -5 0 -16 18 -25 40 -18 45 -21 46 -45 24 -15
-14 -19 -13 -39 15 -15 22 -30 31 -49 31 -18 0 -34 8 -43 22 -14 21 -15 21
-56 -34z"/>
<path d="M6502 1818 c38 -73 82 -141 110 -171 45 -48 48 -49 70 -35 13 8 29
27 36 41 11 23 10 33 -6 71 -23 50 -37 62 -57 46 -9 -7 -12 -23 -8 -46 11 -65
-22 -37 -108 91 -46 68 -88 124 -92 125 -4 0 20 -55 55 -122z"/>
<path d="M6320 1772 c0 -5 9 -17 19 -26 25 -22 45 -71 37 -91 -10 -27 -37 -16
-97 41 -46 45 -60 53 -65 41 -8 -22 13 -62 72 -135 30 -38 57 -62 69 -62 11
-1 29 -15 40 -33 21 -33 55 -49 55 -25 0 8 -12 38 -26 66 -21 42 -24 55 -14
67 15 18 30 20 30 4 0 -13 140 -179 151 -179 22 0 -32 109 -71 145 -11 10 -20
25 -20 34 1 9 39 -25 90 -79 62 -65 93 -91 100 -84 7 7 -15 46 -71 125 -147
205 -159 217 -159 154 0 -19 -2 -35 -5 -35 -15 0 -62 31 -84 54 -24 25 -51 35
-51 18z"/>
<path d="M6160 1625 c-41 -43 -34 -67 24 -76 29 -5 39 -2 46 12 20 36 4 99
-23 99 -7 0 -28 -16 -47 -35z"/>
<path d="M8733 1433 c-71 -47 -161 -109 -200 -136 -62 -43 -76 -49 -95 -40
-90 40 -116 32 -89 -27 16 -34 18 -35 66 -32 53 3 94 -16 81 -36 -9 -15 -49
-15 -100 -1 -34 9 -42 8 -68 -11 -49 -36 -127 -12 -191 59 -20 22 -39 36 -42
31 -9 -14 10 -44 51 -80 43 -37 83 -56 154 -71 39 -8 50 -15 48 -27 -6 -30
-108 -28 -174 2 -48 22 -55 23 -52 9 3 -15 51 -55 78 -65 5 -2 10 -10 12 -18
2 -11 -14 -15 -87 -16 -49 -2 -97 2 -107 7 -10 5 -27 29 -39 52 -22 43 -57 87
-70 87 -10 0 58 -138 88 -178 49 -66 -2 -100 -63 -41 -37 36 -54 33 -36 -6 16
-35 15 -75 -1 -75 -19 0 -43 29 -63 75 -15 35 -18 38 -25 20 -4 -11 -8 -30 -8
-42 -1 -13 -9 -31 -18 -41 -10 -9 -25 -29 -35 -42 l-16 -25 -37 35 c-37 34
-100 125 -158 225 -26 46 -28 43 -11 -17 4 -11 26 -45 50 -74 46 -57 64 -104
64 -171 0 -34 -5 -45 -22 -54 -13 -7 -50 -32 -82 -56 -41 -29 -70 -43 -92 -43
-37 0 -81 32 -95 68 -12 30 -15 28 -22 -21 -5 -34 -2 -43 29 -76 18 -21 34
-48 34 -60 0 -27 -42 -71 -69 -71 -10 0 -32 -16 -48 -35 -40 -50 -82 -53 -105
-6 -28 55 -33 56 -73 6 -21 -25 -59 -56 -84 -68 -40 -19 -46 -26 -46 -52 0
-25 4 -30 28 -33 20 -3 34 4 53 27 29 34 66 40 100 17 49 -35 303 -17 482 34
39 12 47 10 92 -13 l49 -26 26 30 c16 20 25 43 25 65 0 40 15 43 42 9 29 -38
92 -65 153 -69 30 -1 58 -6 62 -9 9 -9 25 -9 41 1 20 13 3 40 -42 67 -48 28
-112 91 -99 97 4 3 75 -21 157 -53 82 -32 151 -57 153 -56 1 2 -22 28 -52 57
-82 81 -71 103 27 54 33 -17 54 -22 60 -16 7 7 -24 33 -91 78 -55 37 -101 71
-101 75 0 28 106 36 178 14 36 -12 26 12 -18 40 -29 18 -40 32 -40 50 0 36 21
32 119 -20 45 -25 87 -45 92 -45 25 0 4 31 -40 59 -52 33 -64 50 -52 70 5 8
23 6 66 -9 65 -22 75 -24 75 -11 0 5 -24 23 -53 39 -66 37 -107 84 -107 121 0
34 28 61 61 61 35 0 296 -96 340 -125 34 -22 49 -23 49 -4 0 5 -21 23 -47 40
-59 40 -64 48 -51 72 8 15 16 18 44 12 19 -3 34 -3 34 1 0 16 -88 101 -124
119 -55 28 -65 47 -43 84 9 16 17 41 17 55 0 32 39 59 120 83 54 16 193 110
204 138 8 22 -22 45 -60 45 -26 0 -63 -20 -161 -87z"/>
<path d="M4051 351 c-65 -26 -89 -40 -77 -44 46 -18 130 1 176 39 65 55 31 56
-99 5z"/>
<path d="M4601 351 c-92 -57 -97 -65 -33 -58 69 8 134 44 130 71 -5 32 -28 29
-97 -13z"/>
</g>
</svg>
